PathFileType	4	(X/Y/Z)	D:\TRACE\v60_Jaco2_6-2-23\BothDRS_Motion3_1-v60.trc
DataRate	CameraRate	NumFrames	NumMarkers	Units	OrigDataRate	OrigDataStartFrame	OrigNumFrames
100.00	100.00	      28	9	mm	100.00	3501	      7000
Frame#	Time	front left toe			Front right toe			aft left toe			aft right toe			Arm			FL body			FR body			AL Body			AR Body			
		X1	Y1	Z1	X2	Y2	Z2	X3	Y3	Z3	X4	Y4	Z4	X5	Y5	Z5	X6	Y6	Z6	X7	Y7	Z7	X8	Y8	Z8	X9	Y9	Z9	

3501	35.000	-136.23428	21.89861	-293.36279	230.52444	19.66152	-285.64529	-130.64580	12.77065	348.88324	245.03975	12.80291	323.74908	71.06851	1091.62756	-736.84607	-34.41637	519.40967	-453.38107	123.26454	517.88586	-457.94019	0.14410	555.81989	489.52454	152.06560	544.78564	485.50766	
3502	35.010	-132.19424	25.77784	-289.96060	230.23402	19.47257	-286.55051	-130.62410	12.95582	348.77536	242.68161	15.76276	327.93939	70.33727	1092.89307	-736.44928	-34.61470	519.87823	-452.84772	123.10261	518.18872	-457.41220	0.85135	556.37653	490.36530	152.39896	545.16931	485.78290	
3503	35.020	-128.20665	29.41612	-285.35385	229.94196	19.19258	-286.67828	-131.10320	13.20326	348.69580	239.51152	23.48300	330.58795	69.87260	1093.66956	-735.43610	-34.96173	520.48187	-452.44159	123.07520	518.25464	-457.03201	1.15940	556.69702	490.80185	152.79352	545.26892	486.10995	
3504	35.030	-126.40854	39.80162	-284.74829	230.22234	19.10360	-286.64700	-130.85825	13.08448	348.65930	237.62482	31.53175	331.87253	69.76860	1093.82825	-734.54553	-35.18548	520.37994	-451.82010	123.06322	518.26196	-456.61069	1.44501	556.87628	491.28162	152.99408	545.26056	486.58459	
3505	35.040	-127.28387	50.90560	-284.86371	230.28188	18.83992	-286.58569	-130.86783	13.15993	348.68863	237.32481	43.02866	331.08075	69.53420	1094.04053	-734.12292	-35.02629	520.17242	-451.05981	123.90004	518.13153	-456.12531	1.53817	556.55261	491.80179	153.22429	545.34729	487.23349	
3506	35.050	-128.41844	61.94867	-284.79919	230.64624	18.71259	-286.29706	-131.01086	13.10815	348.80582	239.72258	54.27597	330.59406	69.84392	1093.72327	-733.49976	-34.92541	520.07587	-450.74954	123.16746	518.09637	-455.56067	1.53666	556.18475	492.41330	152.88039	544.81213	487.75684	
3507	35.060	-129.83914	74.44854	-284.53995	230.64978	18.19410	-286.52728	-131.16103	13.03462	348.85062	242.24152	65.48984	329.10138	70.40564	1092.85645	-732.88367	-34.56082	519.85803	-450.27292	123.35272	517.80176	-454.53622	1.43896	555.60870	493.26083	152.77751	544.25629	488.54282	
3508	35.070	-131.18787	86.21640	-283.73169	230.91006	17.80010	-286.42050	-131.27725	12.91497	348.88840	245.72614	78.52524	330.62558	70.60546	1091.89868	-732.44025	-34.37015	519.52240	-449.60510	123.68449	517.32263	-454.20480	0.86147	554.67767	493.59238	152.09239	543.35718	489.06284	
3509	35.080	-132.49095	97.63801	-282.15732	230.89957	17.64367	-286.31018	-131.29263	12.97379	348.93533	247.04684	89.63870	331.08035	71.54630	1091.23047	-731.65973	-34.01874	518.89539	-448.92862	123.85580	516.96948	-453.54007	0.42859	554.33948	494.05276	151.83746	542.89685	489.68192	
3510	35.090	-133.17392	108.36870	-280.60428	230.82175	17.56324	-286.35522	-131.15376	13.12903	348.95898	247.66565	100.82927	332.84482	72.29249	1090.97485	-731.28632	-34.09390	518.49799	-448.59924	123.90288	516.60870	-452.50357	0.20444	554.22363	494.48697	151.79036	542.83167	490.48038	
3511	35.100	-133.43652	117.94550	-278.80194	230.89153	17.51649	-286.37192	-131.24104	12.95044	349.31973	247.60266	110.87019	334.90295	73.19246	1090.70703	-730.84436	-33.96853	517.88989	-447.92477	124.23682	515.86157	-452.27551	-0.06542	554.21545	495.23764	151.41701	542.74585	490.99869	
3512	35.110	-134.26515	127.03914	-277.26642	230.63573	17.28270	-286.52396	-131.24893	13.16596	348.98917	247.32465	120.44257	336.73206	74.12301	1090.24988	-730.23303	-33.79554	517.42157	-447.37125	125.24829	515.11353	-451.67386	-0.24307	554.21954	495.84348	150.96133	542.64514	491.57370	
3513	35.120	-134.72829	134.12590	-275.25635	230.81161	17.21013	-286.42249	-131.30911	13.04110	349.39645	247.12369	128.36298	338.38507	74.35000	1089.63110	-729.69122	-33.60634	516.89490	-446.87305	124.34043	514.63232	-450.64041	-0.57157	554.03174	496.29446	150.77733	542.77008	492.42575	
3514	35.130	-135.93556	140.14661	-273.64731	230.83624	16.83050	-286.42239	-131.02238	12.87374	348.87714	246.59016	134.01666	339.99060	74.54098	1088.85461	-729.50500	-33.21220	516.11176	-445.88309	124.77454	513.91779	-450.12717	-1.32754	554.07489	497.13229	150.20338	542.58966	493.25287	
3515	35.140	-137.33617	144.52533	-271.99521	230.63470	16.44262	-286.47577	-131.15848	12.88492	349.13199	247.70265	137.40579	341.75644	75.36440	1087.79211	-729.24402	-32.74571	515.80951	-445.22076	125.24677	513.59735	-449.17654	-1.72892	554.18512	497.90057	149.76768	542.75763	493.98721	
3516	35.150	-138.87164	146.47278	-270.20331	230.88542	16.30415	-286.35522	-131.00204	13.19947	348.86148	247.07715	137.72098	343.72318	75.94626	1086.70557	-728.94458	-32.42332	515.85809	-444.85220	125.26870	513.66364	-448.20319	-2.42156	554.37671	498.61780	149.11856	542.75781	495.06964	
3517	35.160	-139.99062	144.06656	-267.51950	230.82465	16.04569	-286.43164	-130.98058	13.28447	348.82077	247.53972	135.91333	346.68314	76.82460	1085.57458	-728.70972	-31.97169	515.65613	-443.90656	125.85417	513.32495	-447.61340	-2.83760	554.75159	499.26944	148.73457	542.86481	495.72281	
3518	35.170	-140.31264	139.48094	-265.04700	231.05490	15.95426	-286.40955	-131.04160	13.38449	348.79431	246.99490	132.13376	349.07611	77.44403	1084.75281	-728.67767	-31.81395	515.44415	-443.43326	126.93783	512.92145	-447.01492	-3.76761	555.02466	499.88739	147.77591	543.31769	496.53418	
3519	35.180	-140.50525	134.29065	-262.58398	231.17590	15.95602	-286.34760	-131.09036	13.50378	348.78809	244.71988	126.62669	351.74500	79.07992	1083.95703	-728.20251	-31.60270	515.28687	-442.69620	127.08582	512.66797	-446.22278	-4.37254	555.50781	500.63965	147.21034	543.64343	497.36993	
3520	35.190	-140.22031	128.41890	-260.32712	231.56351	15.96652	-286.14035	-131.09399	13.62581	348.73865	243.90970	121.20007	354.33469	80.14800	1083.52136	-727.95331	-31.31250	514.97351	-441.77634	127.26722	512.30969	-445.18698	-4.56420	555.72192	501.29471	146.64937	544.04694	498.24316	
3521	35.200	-140.43324	121.60721	-258.04199	231.76839	15.90920	-286.01398	-131.15668	13.80827	348.67407	242.85249	114.55661	356.90561	81.36280	1082.96411	-727.40100	-31.16359	514.99023	-441.40359	127.45580	512.32776	-444.62857	-5.40676	556.02051	501.99506	146.21123	544.27679	498.96542	
3522	35.210	-141.40244	114.15469	-256.27881	231.97960	15.75018	-285.89960	-131.15286	13.93524	348.54135	241.86235	107.00964	359.15555	82.42192	1082.25037	-727.24896	-30.91748	514.84302	-440.88855	127.84854	512.22522	-443.86099	-6.01399	556.19910	502.42746	145.64427	544.25153	499.66626	
3523	35.220	-142.41483	105.80976	-254.34688	231.83759	15.56262	-285.91568	-131.20311	14.03672	348.44214	241.50577	98.97271	361.35226	83.81728	1081.47095	-726.52167	-30.62518	514.63477	-440.03622	128.11819	511.83682	-442.97748	-6.81199	556.34167	502.99997	144.79317	544.43427	500.65323	
3524	35.230	-143.91214	97.22768	-252.48309	231.82306	15.37365	-285.83817	-131.30650	14.04228	348.44260	240.78693	89.24068	363.19904	84.61053	1080.61218	-726.48175	-30.28499	514.43365	-439.49615	127.61971	511.66235	-442.16699	-7.33801	556.37219	503.73422	144.32304	544.26605	501.15903	
3525	35.240	-144.53612	88.51936	-250.61041	231.61955	15.02492	-285.92981	-131.26561	14.00663	348.42746	239.95839	80.59460	366.25159	85.53505	1079.55505	-726.35986	-30.06336	514.31195	-439.01157	127.98460	511.26791	-440.88840	-7.94410	556.53076	504.33749	143.86031	544.28375	502.19916	
3526	35.250	-145.05060	79.59454	-248.61964	231.17570	14.50071	-286.36111	-131.26009	14.13588	348.36084	238.09750	70.80145	368.03223	87.15341	1078.42236	-726.28351	-29.74424	513.98651	-438.18900	128.26239	510.98846	-440.53482	-8.64449	556.60706	504.69937	143.33846	544.21997	502.74326	
3527	35.260	-145.51935	70.08727	-247.14224	231.09404	14.20083	-286.50079	-131.61198	14.68250	348.39197	237.09555	61.73430	369.94775	88.36349	1077.55261	-726.31360	-29.57078	513.93774	-437.76743	129.02682	510.84988	-440.23422	-9.24300	556.62274	505.44199	143.12593	544.15118	503.68787	
3528	35.270	-146.16629	60.89355	-245.62305	230.97174	14.00563	-286.50247	-131.56216	14.86329	348.27243	235.89053	52.73231	370.87933	89.57774	1076.58093	-726.19165	-29.57605	513.96082	-437.57178	129.35066	510.62277	-439.44641	-9.69549	556.67053	505.95041	142.24005	544.08545	504.35971	
